<svg xmlns="http://www.w3.org/2000/svg" width="16" height="16" viewBox="0 0 16 16" fill="none">
  <g clip-path="url(#clip0_28_111)">
    <path d="M4.8304 0.365494C5.41284 0.365494 5.8834 0.791683 5.8834 1.3192V2.27291H10.0954V1.3192C10.0954 0.791683 10.566 0.365494 11.1484 0.365494C11.7309 0.365494 12.2014 0.791683 12.2014 1.3192V2.27291H13.7809C14.653 2.27291 15.3604 2.91369 15.3604 3.70348V5.13405H0.618378V3.70348C0.618378 2.91369 1.32587 2.27291 2.19788 2.27291H3.77739V1.3192C3.77739 0.791683 4.24795 0.365494 4.8304 0.365494ZM0.618378 6.08776H15.3604V14.1943C15.3604 14.9841 14.653 15.6249 13.7809 15.6249H2.19788C1.32587 15.6249 0.618378 14.9841 0.618378 14.1943V6.08776ZM2.72439 8.47203V9.42574C2.72439 9.68801 2.96131 9.9026 3.25089 9.9026H4.30389C4.59347 9.9026 4.8304 9.68801 4.8304 9.42574V8.47203C4.8304 8.20976 4.59347 7.99518 4.30389 7.99518H3.25089C2.96131 7.99518 2.72439 8.20976 2.72439 8.47203ZM6.93641 8.47203V9.42574C6.93641 9.68801 7.17333 9.9026 7.46291 9.9026H8.51591C8.80549 9.9026 9.04242 9.68801 9.04242 9.42574V8.47203C9.04242 8.20976 8.80549 7.99518 8.51591 7.99518H7.46291C7.17333 7.99518 6.93641 8.20976 6.93641 8.47203ZM11.6749 7.99518C11.3854 7.99518 11.1484 8.20976 11.1484 8.47203V9.42574C11.1484 9.68801 11.3854 9.9026 11.6749 9.9026H12.7279C13.0175 9.9026 13.2544 9.68801 13.2544 9.42574V8.47203C13.2544 8.20976 13.0175 7.99518 12.7279 7.99518H11.6749ZM2.72439 12.2869V13.2406C2.72439 13.5029 2.96131 13.7174 3.25089 13.7174H4.30389C4.59347 13.7174 4.8304 13.5029 4.8304 13.2406V12.2869C4.8304 12.0246 4.59347 11.81 4.30389 11.81H3.25089C2.96131 11.81 2.72439 12.0246 2.72439 12.2869ZM7.46291 11.81C7.17333 11.81 6.93641 12.0246 6.93641 12.2869V13.2406C6.93641 13.5029 7.17333 13.7174 7.46291 13.7174H8.51591C8.80549 13.7174 9.04242 13.5029 9.04242 13.2406V12.2869C9.04242 12.0246 8.80549 11.81 8.51591 11.81H7.46291ZM11.1484 12.2869V13.2406C11.1484 13.5029 11.3854 13.7174 11.6749 13.7174H12.7279C13.0175 13.7174 13.2544 13.5029 13.2544 13.2406V12.2869C13.2544 12.0246 13.0175 11.81 12.7279 11.81H11.6749C11.3854 11.81 11.1484 12.0246 11.1484 12.2869Z" fill="#005C47" fill-opacity="0.6"/>
  </g>
  <defs>
    <clipPath id="clip0_28_111">
      <rect width="14.7421" height="15.2594" fill="white" transform="translate(0.618378 0.365494)"/>
    </clipPath>
  </defs>
</svg>