<svg width="40" height="41" viewBox="0 0 40 41" fill="none" xmlns="http://www.w3.org/2000/svg">
<path d="M32.5016 16.2508C32.5016 19.8369 31.3375 23.1496 29.3764 25.8372L39.2675 35.7361C40.2442 36.7127 40.2442 38.2987 39.2675 39.2754C38.2909 40.252 36.7049 40.252 35.7283 39.2754L25.8372 29.3764C23.1496 31.3453 19.8369 32.5016 16.2508 32.5016C7.27379 32.5016 0 25.2278 0 16.2508C0 7.27379 7.27379 0 16.2508 0C25.2278 0 32.5016 7.27379 32.5016 16.2508ZM16.2508 27.5013C17.7282 27.5013 19.1912 27.2103 20.5562 26.6449C21.9212 26.0796 23.1614 25.2508 24.2061 24.2061C25.2508 23.1614 26.0796 21.9212 26.6449 20.5562C27.2103 19.1912 27.5013 17.7282 27.5013 16.2508C27.5013 14.7734 27.2103 13.3104 26.6449 11.9454C26.0796 10.5804 25.2508 9.34016 24.2061 8.29545C23.1614 7.25074 21.9212 6.42203 20.5562 5.85664C19.1912 5.29125 17.7282 5.00024 16.2508 5.00024C14.7734 5.00024 13.3104 5.29125 11.9454 5.85664C10.5804 6.42203 9.34016 7.25074 8.29545 8.29545C7.25074 9.34016 6.42203 10.5804 5.85664 11.9454C5.29125 13.3104 5.00024 14.7734 5.00024 16.2508C5.00024 17.7282 5.29125 19.1912 5.85664 20.5562C6.42203 21.9212 7.25074 23.1614 8.29545 24.2061C9.34016 25.2508 10.5804 26.0796 11.9454 26.6449C13.3104 27.2103 14.7734 27.5013 16.2508 27.5013Z" fill="white"/>
</svg>
