<svg width="50" height="50" viewBox="0 0 50 50" fill="none" xmlns="http://www.w3.org/2000/svg">
<circle cx="25" cy="25" r="25" fill="#006D54"/>
<path d="M10.6504 23.9551C9.78549 24.8096 9.78549 26.1973 10.6504 27.0518L21.7219 37.9893C22.5868 38.8438 23.9915 38.8438 24.8565 37.9893C25.7214 37.1348 25.7214 35.7471 24.8565 34.8926L17.5563 27.6875L38.7857 27.6875C40.0105 27.6875 41 26.71 41 25.5C41 24.29 40.0105 23.3125 38.7857 23.3125L17.5632 23.3125L24.8496 16.1074C25.7145 15.2529 25.7145 13.8652 24.8496 13.0107C23.9846 12.1562 22.5799 12.1562 21.715 13.0107L10.6435 23.9482L10.6504 23.9551Z" fill="white"/>
</svg>
