<svg width="50" height="50" viewBox="0 0 50 50" fill="none" xmlns="http://www.w3.org/2000/svg">
<circle cx="25" cy="25" r="25" transform="rotate(-180 25 25)" fill="#006D54"/>
<path d="M39.3496 26.0449C40.2145 25.1904 40.2145 23.8027 39.3496 22.9482L28.2781 12.0107C27.4132 11.1563 26.0085 11.1563 25.1435 12.0107C24.2786 12.8652 24.2786 14.2529 25.1435 15.1074L32.4437 22.3125L11.2143 22.3125C9.98951 22.3125 9 23.29 9 24.5C9 25.71 9.98951 26.6875 11.2143 26.6875L32.4368 26.6875L25.1504 33.8926C24.2855 34.7471 24.2855 36.1348 25.1504 36.9893C26.0154 37.8438 27.4201 37.8438 28.285 36.9893L39.3565 26.0518L39.3496 26.0449Z" fill="white"/>
</svg>
