<svg width="36" height="36" viewBox="0 0 36 36" fill="none" xmlns="http://www.w3.org/2000/svg">
<g clip-path="url(#clip0_4_14)">
<path d="M11.25 6.75C11.25 4.95979 11.9612 3.2429 13.227 1.97703C14.4929 0.711159 16.2098 0 18 0C19.7902 0 21.5071 0.711159 22.773 1.97703C24.0388 3.2429 24.75 4.95979 24.75 6.75C24.75 8.54021 24.0388 10.2571 22.773 11.523C21.5071 12.7888 19.7902 13.5 18 13.5C16.2098 13.5 14.4929 12.7888 13.227 11.523C11.9612 10.2571 11.25 8.54021 11.25 6.75ZM16.875 17.4375V36L13.4719 34.2984C12.0023 33.5672 10.4133 33.1031 8.775 32.9414L2.025 32.2664C0.878906 32.1469 0 31.1836 0 30.0234V15.75C0 14.5055 1.00547 13.5 2.25 13.5H4.38047C8.85234 13.5 13.2117 14.8781 16.875 17.4375ZM19.125 36V17.4375C22.7883 14.8781 27.1477 13.5 31.6195 13.5H33.75C34.9945 13.5 36 14.5055 36 15.75V30.0234C36 31.1766 35.1211 32.1469 33.975 32.2594L27.225 32.9344C25.5938 33.0961 23.9977 33.5602 22.5281 34.2914L19.125 36Z" fill="white"/>
</g>
<defs>
<clipPath id="clip0_4_14">
<rect width="36" height="36" fill="white"/>
</clipPath>
</defs>
</svg>
