<svg width="32" height="36" viewBox="0 0 32 36" fill="none" xmlns="http://www.w3.org/2000/svg">
<g clip-path="url(#clip0_4_12)">
<path d="M6.75 0C3.02344 0 0 3.02344 0 6.75V29.25C0 32.9766 3.02344 36 6.75 36H27H29.25C30.4945 36 31.5 34.9945 31.5 33.75C31.5 32.5055 30.4945 31.5 29.25 31.5V27C30.4945 27 31.5 25.9945 31.5 24.75V2.25C31.5 1.00547 30.4945 0 29.25 0H27H6.75ZM6.75 27H24.75V31.5H6.75C5.50547 31.5 4.5 30.4945 4.5 29.25C4.5 28.0055 5.50547 27 6.75 27ZM9 10.125C9 9.50625 9.50625 9 10.125 9H23.625C24.2437 9 24.75 9.50625 24.75 10.125C24.75 10.7437 24.2437 11.25 23.625 11.25H10.125C9.50625 11.25 9 10.7437 9 10.125ZM10.125 13.5H23.625C24.2437 13.5 24.75 14.0063 24.75 14.625C24.75 15.2437 24.2437 15.75 23.625 15.75H10.125C9.50625 15.75 9 15.2437 9 14.625C9 14.0063 9.50625 13.5 10.125 13.5Z" fill="white"/>
</g>
<defs>
<clipPath id="clip0_4_12">
<rect width="31.5" height="36" fill="white"/>
</clipPath>
</defs>
</svg>
