<svg width="41" height="36" viewBox="0 0 41 36" fill="none" xmlns="http://www.w3.org/2000/svg">
<g clip-path="url(#clip0_2_26)">
<path d="M40.4859 17.9648C40.4859 19.2305 39.4312 20.2219 38.2359 20.2219H35.9859L36.0352 31.4859C36.0352 31.6758 36.0211 31.8656 36 32.0555V33.1875C36 34.7414 34.7414 36 33.1875 36H32.0625C31.9852 36 31.9078 36 31.8305 35.993C31.732 36 31.6336 36 31.5352 36H29.25H27.5625C26.0086 36 24.75 34.7414 24.75 33.1875V31.5V27C24.75 25.7555 23.7445 24.75 22.5 24.75H18C16.7555 24.75 15.75 25.7555 15.75 27V31.5V33.1875C15.75 34.7414 14.4914 36 12.9375 36H11.25H9.00703C8.90156 36 8.79609 35.993 8.69063 35.9859C8.60625 35.993 8.52188 36 8.4375 36H7.3125C5.75859 36 4.5 34.7414 4.5 33.1875V25.3125C4.5 25.2492 4.5 25.1789 4.50703 25.1156V20.2219H2.25C0.984375 20.2219 0 19.2375 0 17.9648C0 17.332 0.210938 16.7695 0.703125 16.2773L18.7312 0.5625C19.2234 0.0703125 19.7859 0 20.2781 0C20.7703 0 21.3328 0.140625 21.7547 0.492188L39.7125 16.2773C40.275 16.7695 40.5562 17.332 40.4859 17.9648Z" fill="white"/>
</g>
<defs>
<clipPath id="clip0_2_26">
<rect width="40.5" height="36" fill="white"/>
</clipPath>
</defs>
</svg>
