<svg width="27" height="36" viewBox="0 0 27 36" fill="none" xmlns="http://www.w3.org/2000/svg">
<g clip-path="url(#clip0_4_20)">
<path d="M4.5 0C2.01797 0 0 2.01797 0 4.5V31.5C0 33.982 2.01797 36 4.5 36H22.5C24.982 36 27 33.982 27 31.5V11.25H18C16.7555 11.25 15.75 10.2445 15.75 9V0H4.5ZM18 0V9H27L18 0ZM9.5625 16.875H14.3438C17.2969 16.875 19.6875 19.2656 19.6875 22.2188C19.6875 25.1719 17.2969 27.5625 14.3438 27.5625H11.25V29.8125C11.25 30.7477 10.4977 31.5 9.5625 31.5C8.62734 31.5 7.875 30.7477 7.875 29.8125V25.875V18.5625C7.875 17.6273 8.62734 16.875 9.5625 16.875ZM14.3438 24.1875C15.4336 24.1875 16.3125 23.3086 16.3125 22.2188C16.3125 21.1289 15.4336 20.25 14.3438 20.25H11.25V24.1875H14.3438Z" fill="white"/>
</g>
<defs>
<clipPath id="clip0_4_20">
<rect width="27" height="36" fill="white"/>
</clipPath>
</defs>
</svg>
