<svg width="45" height="36" viewBox="0 0 45 36" fill="none" xmlns="http://www.w3.org/2000/svg">
<g clip-path="url(#clip0_4_16)">
<path d="M22.5 2.25C21.9305 2.25 21.368 2.34844 20.8336 2.53828L1.11092 9.66094C0.442952 9.90703 -1.63638e-05 10.5398 -1.63638e-05 11.25C-1.63638e-05 11.9602 0.442952 12.593 1.11092 12.8391L5.18201 14.3086C4.02889 16.1227 3.37498 18.2672 3.37498 20.5242V22.5C3.37498 24.4969 2.61561 26.557 1.80701 28.1812C1.34998 29.0953 0.829671 29.9953 0.224984 30.825C-1.63615e-05 31.1273 -0.0632976 31.5211 0.0632649 31.8797C0.189827 32.2383 0.48514 32.5055 0.850765 32.5969L5.35076 33.7219C5.64608 33.7992 5.96248 33.743 6.22264 33.5813C6.4828 33.4195 6.66561 33.1523 6.72186 32.85C7.32655 29.8406 7.0242 27.1406 6.5742 25.207C6.3492 24.2086 6.04686 23.1891 5.62498 22.2539V20.5242C5.62498 18.4008 6.34217 16.3969 7.5867 14.7937C8.49373 13.7039 9.66795 12.825 11.0461 12.2836L22.0851 7.94531C22.6617 7.72031 23.3156 8.00156 23.5406 8.57812C23.7656 9.15469 23.4844 9.80859 22.9078 10.0336L11.8687 14.3719C10.9969 14.7164 10.2305 15.2437 9.60467 15.8906L20.8265 19.9406C21.3609 20.1305 21.9234 20.2289 22.493 20.2289C23.0625 20.2289 23.625 20.1305 24.1594 19.9406L43.889 12.8391C44.557 12.6 45 11.9602 45 11.25C45 10.5398 44.557 9.90703 43.889 9.66094L24.1664 2.53828C23.632 2.34844 23.0695 2.25 22.5 2.25ZM8.99998 28.6875C8.99998 31.1695 15.0469 33.75 22.5 33.75C29.9531 33.75 36 31.1695 36 28.6875L34.9242 18.4641L24.9258 22.0781C24.1453 22.3594 23.3226 22.5 22.5 22.5C21.6773 22.5 20.8476 22.3594 20.0742 22.0781L10.0758 18.4641L8.99998 28.6875Z" fill="white"/>
</g>
<defs>
<clipPath id="clip0_4_16">
<rect width="45" height="36" fill="white"/>
</clipPath>
</defs>
</svg>
