<svg width="45" height="36" viewBox="0 0 45 36" fill="none" xmlns="http://www.w3.org/2000/svg">
<path d="M13.5 6.75C14.3951 6.75 15.2535 6.39442 15.8865 5.76149C16.5194 5.12855 16.875 4.27011 16.875 3.375C16.875 2.47989 16.5194 1.62145 15.8865 0.988515C15.2535 0.355579 14.3951 0 13.5 0C12.6049 0 11.7464 0.355579 11.1135 0.988515C10.4806 1.62145 10.125 2.47989 10.125 3.375C10.125 4.27011 10.4806 5.12855 11.1135 5.76149C11.7464 6.39442 12.6049 6.75 13.5 6.75ZM12.9375 33.75V24.75H14.0625V33.75C14.0625 34.9945 15.068 36 16.3125 36C17.557 36 18.5625 34.9945 18.5625 33.75V13.5H22.5H27H28.125C29.3695 13.5 30.375 12.4945 30.375 11.25C30.375 10.0055 29.3695 9 28.125 9H27V4.5H40.5V18H27V15.75H22.5V19.125C22.5 20.9883 24.0117 22.5 25.875 22.5H41.625C43.4883 22.5 45 20.9883 45 19.125V3.375C45 1.51172 43.4883 0 41.625 0H25.875C24.0117 0 22.5 1.51172 22.5 3.375V9H17.093H12.4523C10.0828 9 7.88905 10.2445 6.66561 12.2766L2.56639 19.0969C1.92655 20.1586 2.27108 21.5438 3.3328 22.1836C4.39452 22.8234 5.77967 22.4789 6.41952 21.4172L8.43749 18.0633V33.75C8.43749 34.9945 9.44295 36 10.6875 36C11.932 36 12.9375 34.9945 12.9375 33.75Z" fill="white"/>
</svg>
